<?xml version="1.0" encoding="utf-8"?>
<!-- Generator: Adobe Illustrator 25.0.1, SVG Export Plug-In . SVG Version: 6.00 Build 0)  -->
<svg version="1.0" id="Layer_1" xmlns="http://www.w3.org/2000/svg" xmlns:xlink="http://www.w3.org/1999/xlink" x="0px" y="0px"
	 viewBox="0 0 870 549" style="enable-background:new 0 0 870 549;" xml:space="preserve">
<style type="text/css">
	.st0{fill:#3681FC;}
	.st1{fill:none;}
</style>
<path class="st0" d="M162.5,325.7c3.2,0,5.9,2.6,5.9,5.9c0,3.2-2.6,5.9-5.9,5.9c-3.2,0-5.9-2.6-5.9-5.9l0,0
	c-0.1-3.2,2.5-5.8,5.7-5.9C162.4,325.7,162.4,325.7,162.5,325.7z M258.3,288.4c-3.2,0-5.8-2.5-5.9-5.7c0-0.1,0-0.1,0-0.2
	c0.2-3.1,2.7-5.6,5.9-5.9c3.2,0,5.8,2.5,5.8,5.7c0,0.1,0,0.1,0,0.2C264,285.7,261.5,288.2,258.3,288.4z M258.3,263.5
	c-10.4,0.2-18.8,8.6-19,19c0,2.2,0,4.4,0.7,5.9l-62.2,32.9c-5.9-8.5-17.7-10.6-26.2-4.7c-2.5,1.8-4.6,4.1-6,6.9L90,294.2
	c-5.8-2.9-10.2-13.2-9.5-22c0-4.4,2.2-8,4.4-9.5c1.6-0.7,3.5-0.7,5.1,0h0.7c14.6,8,63.7,32.9,65.1,34.4c2.9,1.5,5.1,2.2,10.2-0.7
	l100.3-51.9c1.7-0.8,2.9-2.5,2.9-4.4c0-2.9-2.9-4.4-2.9-4.4c-5.9-2.9-14.6-6.6-22.7-11c-18.3-8.8-38.8-18.3-48.3-22.7
	c-4.7-2.8-10.6-2.8-15.4,0l-2.2,0.7c-41,20.5-95.8,47.6-98.8,49c-5.9,3.7-8.8,10.2-9.5,18.3c-0.7,13.2,5.8,27.1,16.1,32.2l59.3,30.7
	c1.3,9.1,9.1,16,18.3,16.1c10.2,0,19-8,19-18.3l65.1-35.1c3.7,2.9,7.3,3.7,11.7,3.7c10.4-0.2,18.8-8.6,19-19
	C276.6,271.5,268.6,263.5,258.3,263.5"/>
<path d="M401,313.2c-4.3,4.3-9.6,7.6-15.4,9.5c-7.1,2.4-14.5,3.6-22,3.6c-12.4,0-22.7-3.6-30-11.7c-7.3-7.3-11.7-18.3-11.7-31.5v-8
	c0-9.5,1.5-17.6,5.1-24.1c3.6-7.3,8-12.4,13.9-16.1c6.4-3.9,13.7-5.9,21.2-5.9c11.7,0,21.2,2.9,27.8,8s10.2,13.2,11.7,24.1h-21.9
	c-0.7-5.1-2.2-8.8-5.1-11c-3.2-2.4-7-3.7-11-3.7c-5.9,0-10.2,2.2-13.2,7.3s-4.4,11.7-5.1,20.5v5.9c0,9.5,1.5,16.8,5.1,21.2
	c2.9,4.4,8,7.3,15.4,7.3c5.9,0,10.2-1.5,13.2-3.7v-14.6h-16v-15.4h38.8v38L401,313.2z"/>
<path d="M414.2,325h22v-70.2h-22V325z M413.4,236.4c0.1-3.1,1.4-5.9,3.7-8c2.2-2.2,5.1-2.9,8.8-2.9s6.6,0.7,8.8,2.9s3.7,4.4,3.7,8
	c-0.1,3.1-1.4,5.9-3.7,8c-2.2,2.2-5.1,2.9-8.8,2.9s-6.6-0.7-8.8-2.9C414.2,242.3,413.4,240.1,413.4,236.4z"/>
<path d="M475.6,237.1v17.6h11.7v15.4h-11.7v32.2c0,2,0.5,4.1,1.5,5.9c0.7,0.7,2.9,1.5,5.9,1.5c2.2,0,3.7,0,5.1-0.7v15.4
	c-4,1.5-8.2,2.2-12.4,2.2c-7.3,0-13.2-1.5-16.8-5.1s-5.1-8.8-5.1-16.1v-35.1h-8.8v-15.4h8.8v-17.6H475.6z"/>
<path d="M519.5,284.7v22.7h14.6c4.4,0,7.3-0.7,9.5-2.9c2.2-2.2,3.7-4.4,3.7-8c0-8-3.7-11.7-11.7-11.7L519.5,284.7z M519.5,270.1
	h11.7c5.1,0,8.8-0.7,11-2.9c2.2-1.5,2.9-4.4,2.9-8c0-3.3-1.3-6.5-3.7-8.8c-3.3-2-7.1-3.1-11-2.9h-11L519.5,270.1z M496.9,324.9
	v-94.4h34.4c12.4,0,21.2,2.2,27.8,6.6s9.5,11,9.5,19.8c0,4.4-1.3,8.7-3.7,12.4c-2.2,3.7-5.8,5.9-10.2,7.3c5.1,1.5,8.8,3.7,11.7,7.3
	s3.7,8,3.7,13.2c0,9.5-2.9,16.1-8.8,21.2c-5.8,4.4-14.6,7.3-26.3,7.3L496.9,324.9z"/>
<path d="M600.8,290.6c0,6.6,0.7,11,2.9,14.6c2,2.8,5.3,4.5,8.8,4.4c8,0,11.7-5.9,11.7-18.3v-2.2c0-12.4-4.4-19-12.4-19
	c-7.3,0-11,5.1-11.7,16.1L600.8,290.6z M578.8,289.1c-0.1-6.6,1.4-13.1,4.4-19c2.9-5.1,6.6-9.5,11.7-12.4s11-4.4,18.3-4.4
	c10.2,0,19,2.9,24.9,9.5s8.8,15.4,8.8,26.3v1.5c0,11-2.9,19.8-9.5,26.3c-5.9,6.6-14.6,9.5-24.9,9.5s-18.3-2.9-24.2-8.8
	s-9.5-13.9-9.5-24.1V289.1z"/>
<path d="M676.1,290.6c0,6.6,0.7,11,2.9,14.6c2,2.8,5.3,4.5,8.8,4.4c8,0,11.7-5.9,11.7-18.3v-2.2c0-12.4-4.4-19-12.4-19
	c-7.3,0-11,5.1-11.7,16.1L676.1,290.6z M654.1,289.1c-0.1-6.6,1.4-13.1,4.4-19c2.9-5.1,6.6-9.5,11.7-12.4s11-4.4,18.3-4.4
	c10.2,0,19,2.9,24.9,9.5s8.8,15.4,8.8,26.3v1.5c0,11-2.9,19.8-9.5,26.3c-5.8,6.6-14.6,9.5-24.9,9.5s-18.3-2.9-24.1-8.8
	s-9.5-13.9-9.5-24.1V289.1z"/>
<path d="M760.3,299.3l-6.6,5.9V325h-22v-99.5h22v52.7l2.2-2.9l16.8-20.5H799L774.1,284l26.3,41h-24.8L760.3,299.3z"/>
<rect x="51" y="178" class="st1" width="768" height="193"/>
</svg>
