<svg xml:space="preserve" style="enable-background:new 0 0 150 44;" viewBox="0 0 150 44" y="0px" x="0px" xmlns:xlink="http://www.w3.org/1999/xlink" xmlns="http://www.w3.org/2000/svg" id="Layer_1" version="1.1">
<style type="text/css">
	.st0{fill:#0A140C;}
	.st1{fill:#FFFFFF;stroke:#0A140C;}
	.st2{fill:#FFFFFF;}
</style>
<path d="M59.8,13.8v25.3h-5.1V13.8H59.8z M67.7,24.5v4.2h-9.2v-4.2H67.7z M68.7,13.8V18H58.4v-4.2H68.7L68.7,13.8z
	 M71.7,13.8h8.2c1.7,0,3.1,0.3,4.3,0.9c1.2,0.5,2.1,1.4,2.7,2.5c0.7,1.3,1.1,2.7,1.1,4.2c0,1.4-0.2,2.5-0.6,3.5
	c-0.3,1.1-0.8,1.8-1.6,2.4C85,28,84.3,28.4,83.3,29l-1.6,0.8h-6.6v-4.2h4.5c0.6,0,1.2-0.1,1.8-0.4c0.4-0.3,0.7-0.7,1-1.3
	c0.2-0.7,0.4-1.4,0.3-2.1c0-0.7-0.1-1.4-0.3-2c-0.2-0.5-0.5-1.1-1-1.3c-0.3-0.3-0.9-0.5-1.6-0.5h-3.1v21.1h-5V13.8L71.7,13.8z
	 M83.2,39.1l-4.6-11.3h5.2l4.8,11.1v0.2L83.2,39.1L83.2,39.1z M106,34.9v4.2H95v-4.2L106,34.9L106,34.9z M96.6,13.8v25.3h-5.1V13.8
	h5.2L96.6,13.8L96.6,13.8z M104.5,24.1v4H95v-4H104.5z M106,13.8V18H95v-4.2H106z M119.8,32.5c0-0.4,0-0.8-0.2-1.2
	c0-0.4-0.2-0.7-0.5-1.1l-1-1.1l-2-0.8l-2.7-1.3l-2.3-1.6c-0.7-0.6-1.3-1.3-1.8-2.1c-0.4-0.9-0.6-1.9-0.5-2.8c0-1.1,0.1-2.1,0.5-2.8
	c0.4-0.9,0.9-1.7,1.7-2.3c0.7-0.5,1.6-1.1,2.5-1.4c2.5-0.8,5.1-0.6,7.5,0.5c1.3,0.6,2.1,1.6,2.8,2.7c0.6,1.1,1,2.5,1,4h-5.2
	c0-0.6,0-1.3-0.2-1.9c-0.2-0.5-0.5-1.1-1-1.3c-0.4-0.3-1.1-0.5-1.7-0.5c-0.6,0-1.2,0.2-1.6,0.4c-0.4,0.2-0.7,0.6-1,1.1l-0.2,1.5
	c0,0.4,0.1,0.8,0.3,1.2l0.8,0.8c0.9,0.6,1.9,1.1,2.9,1.5l3,1.5c0.8,0.5,1.5,1.2,2.1,1.9c0.7,0.6,1,1.4,1.5,2.1
	c0.7,1.9,0.6,3.9-0.1,5.8c-0.4,0.8-0.9,1.6-1.6,2.2c-0.8,0.7-1.7,1.2-2.6,1.5c-2.1,0.5-1,1.9-3.1,1.9s-1.4-1.6-3.4-1.9
	c-1.1-0.3-2.1-0.8-2.8-1.5c-0.8-0.7-1.5-1.6-1.9-2.6c-0.4-1.1-0.6-2.3-0.6-3.7h5.1c0,0.7,0,1.4,0.2,1.9c0.1,0.5,0.3,1.1,0.6,1.4
	c0.3,0.2,0.7,0.5,1.2,0.6c0.5,0.2,1.1,0.2,1.6,0.2c0.7,0,1.3,0,1.7-0.3c0.4-0.3,0.6-0.6,0.8-1.1C119.6,33.5,119.8,33,119.8,32.5z
	 M142.3,24v4.2h-10.5V24L142.3,24L142.3,24z M133.3,13.8v25.3h-5V13.8H133.3z M146,13.8v25.3h-5V13.8H146z" class="st0"></path>
<path d="M42.6,7.6c6.2,15,0,23.1-5.2,27.6c1.3,4.5-3.8,5.4-5.7,3.2c-5.7,2-17.2,1.9-25.5-6.4c-4.5-4.5-1-14.4,10.8-21
	C27.2,5.2,37.4,2,42.6,7.6z" class="st0"></path>
<path d="M17,10.9c8.7-5.7,19.1-8.1,23.4-4.4c6.5,5.7-13.9,18.6-21.5,21.6C10.7,31.5,15.1,39,10.7,39
	c-3.8,0-3.2-5.1-6.6-9.9C2,26.3,7,17.5,17,10.9z" class="st1"></path>
<path d="M35.5,7.5c5.9,1.6-0.5,7.3-5.5,10.9c-4.8,3.4-8.4,5.4-10.1,6.2c-0.5,0.2-2.1-2.9-2.1-1.3c0,0.5-0.9,2.9-1.2,3
	c-1.7,0.7-5.4,1.6-7.4,1.6c-4.4,0-2.5-6.1,3.8-11.6c1.1-1,1.9-0.8,2.9-0.8c-0.7-1-0.7-1.2,0.5-2c5.3-3.6,12-6,14.8-6.4
	c0.5,0,1,0.4,1,0.8C32.9,7.6,35,7.3,35.5,7.5L35.5,7.5z" class="st0"></path>
<path d="M17.4,17.3c1.3-1,2.1-1.3,2.7-3.2c0.7,0.2,1.1-0.1,1.6-0.9c0.4,0.6,2.1,0.8,3.1,0.9c-0.9,0.6-1.3,1.1-1.9,2.7
	C21.1,16,19,16.4,17.4,17.3z" class="st2"></path>
</svg>
