<svg xmlns:xlink="http://www.w3.org/1999/xlink" width="248" xmlns="http://www.w3.org/2000/svg" height="258" id="screenshot-fc97e49e-1d16-8005-8002-c761ac053925" viewBox="0 0 248 258" style="-webkit-print-color-adjust: exact;" fill="none" version="1.1"><g id="shape-fc97e49e-1d16-8005-8002-c761ac053925" width="50" height="52" rx="0" ry="0" style="fill: rgb(0, 0, 0);"><g id="shape-fc97e49e-1d16-8005-8002-c761ac090807"><g class="fills" id="fills-fc97e49e-1d16-8005-8002-c761ac090807"><path fill-rule="evenodd" rx="0" ry="0" d="M246.145,57.375C246.236,57.713,246.283,58.062,246.284,58.412L246.284,112.850C246.284,114.272,245.523,115.586,244.290,116.294L198.613,142.600L198.613,194.740C198.613,196.159,197.859,197.469,196.629,198.184L101.283,253.088C101.065,253.212,100.827,253.291,100.589,253.376C100.500,253.406,100.415,253.460,100.321,253.485C99.654,253.661,98.954,253.661,98.287,253.485C98.178,253.455,98.079,253.396,97.975,253.356C97.757,253.277,97.528,253.207,97.320,253.088L1.994,198.184C0.761,197.475,0.001,196.162,0.000,194.740L0.000,31.426C0.000,31.069,0.050,30.722,0.139,30.384C0.169,30.270,0.238,30.166,0.278,30.052C0.352,29.844,0.422,29.630,0.531,29.437C0.605,29.308,0.714,29.204,0.804,29.085C0.918,28.926,1.022,28.762,1.156,28.623C1.270,28.509,1.419,28.425,1.548,28.325C1.691,28.206,1.820,28.077,1.984,27.983L1.989,27.983L49.655,0.531C50.883,-0.176,52.394,-0.176,53.623,0.531L101.288,27.983L101.298,27.983C101.457,28.082,101.591,28.206,101.735,28.320C101.864,28.420,102.007,28.509,102.121,28.618C102.260,28.762,102.360,28.926,102.479,29.085C102.563,29.204,102.677,29.308,102.746,29.437C102.860,29.635,102.925,29.844,103.004,30.052C103.044,30.166,103.113,30.270,103.143,30.389C103.235,30.728,103.281,31.076,103.282,31.426L103.282,133.431L143.002,110.553L143.002,58.407C143.002,58.060,143.051,57.708,143.141,57.375C143.175,57.256,143.240,57.152,143.280,57.038C143.359,56.829,143.428,56.616,143.537,56.423C143.612,56.294,143.721,56.189,143.805,56.070C143.924,55.912,144.024,55.748,144.162,55.609C144.276,55.495,144.420,55.410,144.549,55.311C144.698,55.192,144.827,55.063,144.986,54.969L144.991,54.969L192.661,27.517C193.889,26.809,195.401,26.809,196.629,27.517L244.295,54.969C244.464,55.068,244.592,55.192,244.741,55.306C244.865,55.405,245.009,55.495,245.123,55.604C245.262,55.748,245.361,55.912,245.480,56.070C245.570,56.189,245.679,56.294,245.748,56.423C245.862,56.616,245.927,56.829,246.006,57.038C246.051,57.152,246.115,57.256,246.145,57.375ZZM238.338,110.553L238.338,65.284L221.657,74.889L198.613,88.162L198.613,133.431L238.338,110.553ZZM190.672,192.443L190.672,147.144L168.005,160.094L103.277,197.047L103.277,242.773L190.672,192.443ZZM7.946,38.298L7.946,192.443L95.331,242.768L95.331,197.052L49.679,171.208L49.664,171.198L49.645,171.188C49.491,171.099,49.362,170.970,49.218,170.861C49.094,170.761,48.950,170.682,48.841,170.573L48.831,170.558C48.702,170.434,48.613,170.280,48.504,170.141C48.405,170.007,48.286,169.893,48.206,169.754L48.201,169.739C48.112,169.590,48.057,169.412,47.993,169.243C47.928,169.094,47.844,168.955,47.804,168.796L47.804,168.792C47.755,168.603,47.745,168.405,47.725,168.211C47.705,168.062,47.666,167.913,47.666,167.764L47.666,167.755L47.666,61.176L24.626,47.899L7.946,38.298ZZM51.644,8.559L11.929,31.426L51.634,54.294L91.343,31.421L51.644,8.559ZZM72.297,151.272L95.336,138.005L95.336,38.298L78.656,47.904L55.612,61.176L55.612,160.883L72.297,151.272ZZM194.645,35.544L154.936,58.412L194.645,81.280L234.350,58.407L194.645,35.544ZZM190.672,88.162L167.628,74.889L150.948,65.284L150.948,110.553L173.987,123.820L190.672,133.431L190.672,88.162ZZM99.299,190.176L157.544,156.914L186.660,140.292L146.980,117.440L101.293,143.751L59.654,167.730L99.299,190.176ZZ" style="fill: rgb(0, 0, 0); fill-opacity: 1;"/></g></g></g></svg>