<svg xmlns:xlink="http://www.w3.org/1999/xlink" width="507.17" xmlns="http://www.w3.org/2000/svg" height="86.519" id="screenshot-fc97e49e-1d16-8005-8002-c75f4edc2b8c" viewBox="0 0 507.17 86.519" style="-webkit-print-color-adjust: exact;" fill="none" version="1.1"><g id="shape-fc97e49e-1d16-8005-8002-c75f4edc2b8c" width="120" version="1.1" height="60" rx="0" ry="0" style="fill: rgb(0, 0, 0);"><g id="shape-fc97e49e-1d16-8005-8002-c75f4edd3d8f" rx="0" ry="0" style="fill: rgb(0, 0, 0);"><g id="shape-fc97e49e-1d16-8005-8002-c75f4ee18e68"><g class="fills" id="fills-fc97e49e-1d16-8005-8002-c75f4ee18e68"><path class="cls-1" rx="0" ry="0" d="M201.818,25.596C202.510,26.318,202.882,27.289,202.849,28.289L202.849,80.064C202.878,81.173,202.463,82.247,201.696,83.048C200.930,83.852,199.859,84.293,198.749,84.262C198.126,84.263,197.508,84.164,196.917,83.970C196.375,83.804,195.889,83.493,195.509,83.073L161.968,39.401L161.968,80.513C162.029,82.522,160.450,84.200,158.441,84.262C158.367,84.264,158.293,84.264,158.219,84.262C157.226,84.300,156.263,83.911,155.574,83.194C154.889,82.473,154.522,81.507,154.556,80.513L154.556,28.629C154.530,27.524,154.971,26.459,155.769,25.693C156.516,24.927,157.550,24.509,158.619,24.541C159.293,24.538,159.960,24.665,160.585,24.917C161.153,25.137,161.652,25.506,162.028,25.984L195.425,69.753L195.425,28.289C195.395,27.325,195.750,26.388,196.412,25.685C197.073,24.982,197.987,24.570,198.952,24.541C199.026,24.539,199.100,24.539,199.174,24.541C200.165,24.504,201.125,24.888,201.818,25.596ZZM270.721,25.596C271.447,26.403,271.830,27.460,271.789,28.544L271.789,61.298C271.859,65.531,270.830,69.711,268.805,73.429C266.887,76.937,264.036,79.846,260.568,81.835C256.974,83.897,252.895,84.961,248.752,84.917C244.572,84.983,240.449,83.940,236.803,81.896C233.319,79.915,230.455,77.004,228.530,73.489C226.504,69.771,225.476,65.592,225.545,61.358L225.545,28.605C225.514,27.495,225.955,26.423,226.759,25.657C227.577,24.856,228.683,24.419,229.828,24.444C230.907,24.445,231.939,24.882,232.690,25.657C233.485,26.409,233.925,27.462,233.903,28.556L233.903,61.310C233.859,64.106,234.567,66.863,235.953,69.292C238.567,73.900,243.454,76.748,248.751,76.752C251.411,76.771,254.029,76.094,256.345,74.787C258.682,73.496,260.627,71.597,261.974,69.292C263.382,66.870,264.104,64.111,264.060,61.310L264.060,28.556C264.021,27.481,264.384,26.430,265.080,25.608C265.796,24.806,266.831,24.362,267.906,24.395C268.973,24.371,269.999,24.808,270.721,25.596ZZM336.386,78.123C336.898,78.827,337.166,79.679,337.151,80.549C337.195,81.647,336.751,82.709,335.938,83.448C335.187,84.158,334.193,84.553,333.160,84.552C331.832,84.602,330.573,83.959,329.836,82.854L313.253,60.715L297.046,82.817C296.316,83.941,295.063,84.614,293.723,84.600C292.743,84.622,291.799,84.235,291.115,83.533C290.437,82.908,290.050,82.029,290.048,81.107C290.066,80.080,290.430,79.089,291.079,78.292L308.572,54.480L290.995,30.848C290.446,30.158,290.143,29.304,290.133,28.422C290.111,27.328,290.551,26.275,291.346,25.523C292.097,24.749,293.130,24.311,294.208,24.310C294.844,24.313,295.471,24.462,296.040,24.746C296.641,25.032,297.156,25.471,297.532,26.020L313.921,48.037L330.152,26.238C330.869,25.129,332.073,24.430,333.391,24.357C334.420,24.363,335.398,24.804,336.084,25.570C336.830,26.236,337.268,27.179,337.297,28.178C337.269,29.055,336.972,29.901,336.448,30.604L318.639,54.310ZM397.951,25.596C398.753,26.328,399.196,27.374,399.164,28.459C399.194,29.530,398.750,30.560,397.951,31.274C397.130,31.969,396.078,32.332,395.003,32.293L379.815,32.293L379.815,80.174C379.836,81.268,379.396,82.320,378.602,83.073C376.826,84.658,374.143,84.658,372.367,83.073C371.577,82.318,371.137,81.267,371.154,80.174L371.154,32.293L356.002,32.293C354.924,32.334,353.872,31.955,353.067,31.237C352.287,30.495,351.866,29.451,351.914,28.376C351.880,27.327,352.300,26.314,353.067,25.597C353.872,24.879,354.924,24.501,356.002,24.542L395.003,24.542C396.084,24.503,397.140,24.880,397.951,25.596ZZ" style="fill: rgb(0, 0, 0); fill-opacity: 1;"/></g></g><g id="shape-fc97e49e-1d16-8005-8002-c75f4ee31105"><g class="fills" id="fills-fc97e49e-1d16-8005-8002-c75f4ee31105"><path class="cls-2" rx="0" ry="0" d="M416.633,82.733C413.871,81.169,411.572,78.900,409.973,76.159C409.498,75.481,409.229,74.681,409.196,73.854C409.196,72.784,409.666,71.768,410.482,71.076C411.177,70.349,412.123,69.915,413.127,69.863C414.651,70.005,416.046,70.779,416.972,71.998C418.868,75.118,422.274,77.001,425.925,76.947C428.888,77.016,431.752,75.878,433.859,73.793C435.986,71.777,437.166,68.959,437.110,66.029L437.110,28.629C437.097,27.524,437.561,26.467,438.383,25.730C439.179,24.947,440.252,24.511,441.368,24.517C442.495,24.462,443.594,24.879,444.400,25.669C445.171,26.448,445.588,27.510,445.553,28.605L445.553,66.090C445.585,69.449,444.700,72.754,442.993,75.649C441.302,78.533,438.874,80.915,435.957,82.551C432.900,84.282,429.438,85.170,425.925,85.123C422.671,85.157,419.466,84.333,416.633,82.733ZZM475.298,83.364C471.917,82.080,468.816,80.157,466.163,77.699C465.070,76.860,464.414,75.571,464.380,74.193C464.393,73.145,464.831,72.147,465.593,71.427C466.319,70.645,467.341,70.205,468.408,70.214C469.306,70.202,470.175,70.536,470.834,71.148C472.883,73.104,475.266,74.678,477.870,75.794C480.489,76.836,483.289,77.347,486.107,77.298C489.316,77.400,492.482,76.533,495.193,74.812C497.448,73.544,498.861,71.175,498.905,68.588C498.947,65.810,497.541,63.209,495.193,61.722C491.786,59.721,488.047,58.349,484.154,57.671C479.216,56.880,474.559,54.851,470.616,51.775C467.397,48.910,465.656,44.736,465.885,40.432C465.818,37.262,466.752,34.150,468.554,31.541C470.386,28.950,472.908,26.924,475.833,25.693C479.178,24.282,482.781,23.584,486.411,23.643C489.813,23.622,493.193,24.201,496.395,25.354C499.218,26.306,501.806,27.849,503.987,29.879C505.153,30.738,505.873,32.072,505.953,33.518C505.952,34.546,505.537,35.530,504.800,36.247C504.095,37.036,503.081,37.479,502.022,37.460C501.307,37.488,500.608,37.240,500.069,36.768C498.299,35.108,496.205,33.832,493.919,33.020C491.550,32.065,489.024,31.563,486.470,31.540C483.272,31.375,480.100,32.197,477.384,33.894C475.275,35.291,474.007,37.653,474.007,40.183C474.007,42.714,475.275,45.076,477.384,46.473C480.491,48.286,483.884,49.558,487.417,50.235C491.168,50.974,494.829,52.117,498.334,53.644C500.980,54.814,503.242,56.706,504.861,59.103C506.501,61.858,507.298,65.034,507.154,68.237C507.201,71.386,506.231,74.467,504.388,77.020C502.448,79.654,499.839,81.719,496.830,83.001C493.523,84.448,489.946,85.176,486.337,85.136C482.581,85.205,478.843,84.605,475.298,83.364ZZ" style="fill: rgb(0, 0, 0); fill-opacity: 1;"/></g></g><g id="shape-fc97e49e-1d16-8005-8002-c75f4ee34054"><g class="fills" id="fills-fc97e49e-1d16-8005-8002-c75f4ee34054"><path class="cls-3" rx="0" ry="0" d="M35.393,83.558C35.307,83.405,35.230,83.247,35.162,83.085C34.697,82.008,34.554,80.820,34.750,79.664L7.225,79.664L48.131,7.679L61.560,31.286L65.454,24.395L53.747,3.773C52.607,1.626,50.455,0.205,48.034,0.000C45.608,0.111,43.457,1.594,42.490,3.821L1.050,76.680C-0.208,78.769,-0.344,81.347,0.686,83.557C1.987,85.607,4.338,86.741,6.752,86.482L41.459,86.482C39.044,86.745,36.691,85.611,35.393,83.558ZZ" style="fill: rgb(0, 0, 0); fill-opacity: 1;"/></g></g><g id="shape-fc97e49e-1d16-8005-8002-c75f4ee3ed1d"><g class="fills" id="fills-fc97e49e-1d16-8005-8002-c75f4ee3ed1d"><path class="cls-4" rx="0" ry="0" d="M115.191,76.680L81.139,16.692C80.004,14.522,77.841,13.082,75.401,12.871C72.977,12.976,70.824,14.454,69.857,16.680L65.454,24.395L69.372,31.286L75.436,20.550L109.125,79.664L96.315,79.664C96.479,80.641,96.387,81.644,96.048,82.575C95.977,82.781,95.887,82.980,95.781,83.170L95.672,83.388C94.258,85.384,91.942,86.544,89.497,86.481L109.538,86.481C111.983,86.546,114.300,85.386,115.712,83.388C116.832,81.236,116.629,78.633,115.191,76.680ZZ" style="fill: rgb(0, 0, 0); fill-opacity: 1;"/></g></g><g id="shape-fc97e49e-1d16-8005-8002-c75f4ee475f3"><g class="fills" id="fills-fc97e49e-1d16-8005-8002-c75f4ee475f3"><path class="cls-5" rx="0" ry="0" d="M95.672,83.388L95.781,83.170C95.887,82.980,95.977,82.781,96.048,82.575C96.387,81.644,96.479,80.641,96.315,79.664C96.126,78.610,95.748,77.599,95.199,76.680L69.397,31.286L65.455,24.395L61.536,31.286L35.746,76.681C35.245,77.611,34.909,78.621,34.751,79.665C34.544,80.818,34.674,82.006,35.127,83.086C35.194,83.248,35.272,83.406,35.358,83.559C36.659,85.609,39.010,86.742,41.424,86.483L89.461,86.483C91.918,86.555,94.249,85.394,95.672,83.388ZZM65.454,38.176L89.036,79.664L41.883,79.664Z" style="fill: rgb(0, 0, 0); fill-opacity: 1;"/></g></g></g></g></svg>