<svg xmlns:xlink="http://www.w3.org/1999/xlink" width="411" xmlns="http://www.w3.org/2000/svg" height="155" id="screenshot-fc97e49e-1d16-8005-8002-c75d5bc5d501" viewBox="0 0 411 155" style="-webkit-print-color-adjust: exact;" fill="none" version="1.1"><g id="shape-fc97e49e-1d16-8005-8002-c75d5bc5d501" width="411" height="155" rx="0" ry="0" style="fill: rgb(0, 0, 0);"><g id="shape-fc97e49e-1d16-8005-8002-c75d5bc6edcc" rx="0" ry="0" style="fill: rgb(0, 0, 0);"><g id="shape-fc97e49e-1d16-8005-8002-c75d5bc81f61"><g class="fills" id="fills-fc97e49e-1d16-8005-8002-c75d5bc81f61"><path fill-rule="evenodd" rx="0" ry="0" d="M352.600,129.500L352.600,147.600L385.300,147.600C392.000,147.600,403.500,142.700,403.900,129.000L403.900,122.000C403.900,110.300,394.300,103.400,385.300,103.400L369.000,103.400L369.000,95.000L401.300,95.000L401.300,76.800L370.300,76.800C362.300,76.800,351.600,83.400,351.600,95.700L351.600,102.000C351.600,114.300,362.200,120.600,370.300,120.600C392.800,120.700,364.900,120.600,385.700,120.600L385.700,129.400M177.400,125.100C177.400,125.100,194.900,123.600,194.900,101.000C194.900,78.400,173.700,76.300,173.700,76.300L135.500,76.300L135.500,147.600L154.700,147.600L154.700,130.400L171.300,147.600L199.700,147.600L177.400,125.100ZZM170.000,110.500L154.700,110.500L154.700,94.200L170.100,94.200C170.100,94.200,174.400,95.800,174.400,102.300C174.400,108.800,170.000,110.500,170.000,110.500ZZM242.300,76.800L222.800,76.800C208.900,76.800,204.200,89.400,204.200,95.400L204.200,147.600L223.700,147.600L223.700,135.100L242.000,135.100L242.000,147.600L260.900,147.600L260.900,95.400C260.900,80.200,247.100,76.800,242.300,76.800ZZM242.000,114.900L223.600,114.900L223.600,97.600C223.600,97.600,223.600,93.700,229.700,93.700L236.400,93.700C241.800,93.700,241.900,97.600,241.900,97.600L242.000,114.900ZL242.000,114.900ZZ" style="fill: rgb(0, 0, 0); fill-opacity: 1;"/></g></g><g id="shape-fc97e49e-1d16-8005-8002-c75d5bc8583e"><g class="fills" id="fills-fc97e49e-1d16-8005-8002-c75d5bc8583e"><rect width="20.300000000000182" height="70.80000000000001" x="269.8000000000002" transform="matrix(1.000000, 0.000000, 0.000000, 1.000000, 0.000000, 0.000000)" fill-rule="evenodd" style="fill: rgb(0, 0, 0); fill-opacity: 1;" ry="0" rx="0" y="76.80000000000007"/></g></g><g id="shape-fc97e49e-1d16-8005-8002-c75d5bc8583f"><g class="fills" id="fills-fc97e49e-1d16-8005-8002-c75d5bc8583f"><path fill-rule="evenodd" rx="0" ry="0" d="M318.600,129.300L318.600,76.800L298.400,76.800L298.400,129.300L298.400,147.600L318.600,147.600L345.900,147.600L345.900,129.300Z" style="fill: rgb(0, 0, 0); fill-opacity: 1;"/></g></g><g id="shape-fc97e49e-1d16-8005-8002-c75d5bc8bc40"><g class="fills" id="fills-fc97e49e-1d16-8005-8002-c75d5bc8bc40"><path fill-rule="evenodd" rx="0" ry="0" d="M15.000,147.600L94.000,147.600C94.000,147.600,78.900,78.700,128.900,50.800C139.800,45.500,174.500,25.700,231.300,67.700C233.100,66.200,234.800,65.000,234.800,65.000C234.800,65.000,182.800,13.100,124.900,18.900C95.800,21.500,60.000,48.000,39.000,83.000C18.000,118.000,15.000,147.600,15.000,147.600ZZ" style="fill: rgb(0, 0, 0); fill-opacity: 1;"/></g></g><g id="shape-fc97e49e-1d16-8005-8002-c75d5bc8e2fb"><g class="fills" id="fills-fc97e49e-1d16-8005-8002-c75d5bc8e2fb"><path fill-rule="evenodd" rx="0" ry="0" d="M15.000,147.600L94.000,147.600C94.000,147.600,78.900,78.700,128.900,50.800C139.800,45.500,174.500,25.700,231.300,67.700C233.100,66.200,234.800,65.000,234.800,65.000C234.800,65.000,182.800,13.100,124.900,18.900C95.800,21.500,60.000,48.000,39.000,83.000C18.000,118.000,15.000,147.600,15.000,147.600ZZ" style="fill: rgb(0, 0, 0); fill-opacity: 1;"/></g></g><g id="shape-fc97e49e-1d16-8005-8002-c75d5bc8e2fc"><g class="fills" id="fills-fc97e49e-1d16-8005-8002-c75d5bc8e2fc"><path fill-rule="evenodd" rx="0" ry="0" d="M15.000,147.600L94.000,147.600C94.000,147.600,78.900,78.700,128.900,50.800C139.800,45.500,174.500,25.700,231.300,67.700C233.100,66.200,234.800,65.000,234.800,65.000C234.800,65.000,182.800,13.100,124.900,18.900C95.700,21.500,59.900,48.000,38.900,83.000C17.900,118.000,15.000,147.600,15.000,147.600ZZM179.600,24.500L180.000,17.800C179.100,17.300,176.600,16.100,170.300,14.300L169.900,20.900C173.200,22.000,176.400,23.200,179.600,24.500ZZ" style="fill: rgb(0, 0, 0); fill-opacity: 1;"/></g></g><g id="shape-fc97e49e-1d16-8005-8002-c75d5bc94032"><g class="fills" id="fills-fc97e49e-1d16-8005-8002-c75d5bc94032"><path fill-rule="evenodd" rx="0" ry="0" d="M170.100,45.700L169.700,52.000C173.000,52.100,176.300,52.500,179.600,53.200L180.000,47.000C176.600,46.300,173.300,45.900,170.100,45.700ZZM133.100,14.500L134.100,14.500L132.100,8.400C129.000,8.400,125.800,8.600,122.500,9.000L124.400,14.900C127.300,14.600,130.200,14.500,133.100,14.500ZZM137.900,51.300L140.200,58.200C143.100,56.800,146.000,55.600,148.900,54.700L146.700,48.100C143.300,49.100,140.400,50.200,137.900,51.300ZZM92.500,25.000L88.000,18.100C85.500,19.400,82.900,20.800,80.200,22.400L84.800,29.400C87.400,27.800,89.900,26.300,92.500,25.000ZZM113.000,70.000L117.800,77.200C119.500,74.700,121.500,72.400,123.700,70.100L119.200,63.300C116.900,65.400,114.800,67.700,113.000,70.000ZZM98.500,102.200L106.600,108.600C107.000,104.700,107.700,100.800,108.700,96.900L101.500,91.200C100.200,94.900,99.300,98.600,98.500,102.200ZZM54.700,54.700L47.600,48.500C45.000,51.000,42.500,53.500,40.200,56.000L47.900,62.600C50.000,59.900,52.300,57.200,54.700,54.700ZZM24.500,99.400L13.000,95.200C11.100,99.500,9.000,104.500,8.000,107.200L19.500,111.400C20.800,108.000,22.900,103.100,24.500,99.400ZZM97.000,127.600C97.200,132.900,97.700,137.200,98.200,140.200L110.200,144.500C109.300,140.600,108.400,136.200,107.800,131.500L97.000,127.600ZZ" style="fill: rgb(0, 0, 0); fill-opacity: 1;"/></g></g></g></g></svg>